<mxfile host="app.diagrams.net" modified="2024-03-22T13:35:49.675Z" agent="Mozilla/5.0 (Windows NT 10.0; Win64; x64) AppleWebKit/537.36 (KHTML, like Gecko) Chrome/120.0.0.0 YaBrowser/24.1.0.0 Safari/537.36" version="24.0.7" etag="RPHkdQ4u31KQzppf9s8a" type="github">
  <diagram name="Страница — 1" id="M64VuKOWc9gWqE0vGjZr">
    <mxGraphModel>
      <root>
        <mxCell id="0" />
        <mxCell id="1" parent="0" />
      </root>
    </mxGraphModel>
  </diagram>
</mxfile>
